<mxfile host="app.diagrams.net" modified="2021-11-19T07:35:24.253Z" agent="5.0 (Windows NT 10.0; Win64; x64) AppleWebKit/537.36 (KHTML, like Gecko) Chrome/89.0.4389.114 Safari/537.36" etag="iFUsGVpxrnDA0l9UfeTD" version="15.6.6" type="github">
  <diagram id="WWiy0l4UguBMJ_xnrwab" name="第 1 页">
    <mxGraphModel dx="2249" dy="762" grid="1" gridSize="10" guides="1" tooltips="1" connect="1" arrows="1" fold="1" page="1" pageScale="1" pageWidth="827" pageHeight="1169" math="0" shadow="0">
      <root>
        <mxCell id="0" />
        <mxCell id="1" parent="0" />
        <mxCell id="nhkQxJ2o8u4Fg2ImektT-5" value="Classname" style="swimlane;fontStyle=0;childLayout=stackLayout;horizontal=1;startSize=26;fillColor=none;horizontalStack=0;resizeParent=1;resizeParentMax=0;resizeLast=0;collapsible=1;marginBottom=0;fontColor=default;strokeColor=default;strokeWidth=2;" vertex="1" parent="1">
          <mxGeometry x="-80" y="540" width="140" height="104" as="geometry" />
        </mxCell>
        <mxCell id="nhkQxJ2o8u4Fg2ImektT-6" value="+ field: type" style="text;strokeColor=none;fillColor=none;align=left;verticalAlign=top;spacingLeft=4;spacingRight=4;overflow=hidden;rotatable=0;points=[[0,0.5],[1,0.5]];portConstraint=eastwest;fontColor=default;" vertex="1" parent="nhkQxJ2o8u4Fg2ImektT-5">
          <mxGeometry y="26" width="140" height="26" as="geometry" />
        </mxCell>
        <mxCell id="nhkQxJ2o8u4Fg2ImektT-7" value="+ field: type" style="text;strokeColor=none;fillColor=none;align=left;verticalAlign=top;spacingLeft=4;spacingRight=4;overflow=hidden;rotatable=0;points=[[0,0.5],[1,0.5]];portConstraint=eastwest;fontColor=default;" vertex="1" parent="nhkQxJ2o8u4Fg2ImektT-5">
          <mxGeometry y="52" width="140" height="26" as="geometry" />
        </mxCell>
        <mxCell id="nhkQxJ2o8u4Fg2ImektT-8" value="+ field: type" style="text;strokeColor=none;fillColor=none;align=left;verticalAlign=top;spacingLeft=4;spacingRight=4;overflow=hidden;rotatable=0;points=[[0,0.5],[1,0.5]];portConstraint=eastwest;fontColor=default;" vertex="1" parent="nhkQxJ2o8u4Fg2ImektT-5">
          <mxGeometry y="78" width="140" height="26" as="geometry" />
        </mxCell>
        <mxCell id="nhkQxJ2o8u4Fg2ImektT-9" value="Classname" style="swimlane;fontStyle=1;align=center;verticalAlign=top;childLayout=stackLayout;horizontal=1;startSize=26;horizontalStack=0;resizeParent=1;resizeParentMax=0;resizeLast=0;collapsible=1;marginBottom=0;fontColor=default;strokeColor=default;strokeWidth=2;fillColor=default;" vertex="1" parent="1">
          <mxGeometry x="-130" y="215" width="160" height="86" as="geometry" />
        </mxCell>
        <mxCell id="nhkQxJ2o8u4Fg2ImektT-10" value="+ field: type" style="text;strokeColor=none;fillColor=none;align=left;verticalAlign=top;spacingLeft=4;spacingRight=4;overflow=hidden;rotatable=0;points=[[0,0.5],[1,0.5]];portConstraint=eastwest;fontColor=default;" vertex="1" parent="nhkQxJ2o8u4Fg2ImektT-9">
          <mxGeometry y="26" width="160" height="26" as="geometry" />
        </mxCell>
        <mxCell id="nhkQxJ2o8u4Fg2ImektT-11" value="" style="line;strokeWidth=1;fillColor=none;align=left;verticalAlign=middle;spacingTop=-1;spacingLeft=3;spacingRight=3;rotatable=0;labelPosition=right;points=[];portConstraint=eastwest;fontColor=default;" vertex="1" parent="nhkQxJ2o8u4Fg2ImektT-9">
          <mxGeometry y="52" width="160" height="8" as="geometry" />
        </mxCell>
        <mxCell id="nhkQxJ2o8u4Fg2ImektT-12" value="+ method(type): type" style="text;strokeColor=none;fillColor=none;align=left;verticalAlign=top;spacingLeft=4;spacingRight=4;overflow=hidden;rotatable=0;points=[[0,0.5],[1,0.5]];portConstraint=eastwest;fontColor=default;" vertex="1" parent="nhkQxJ2o8u4Fg2ImektT-9">
          <mxGeometry y="60" width="160" height="26" as="geometry" />
        </mxCell>
        <mxCell id="nhkQxJ2o8u4Fg2ImektT-13" value="«interface»&lt;br&gt;&lt;b&gt;TransactionManager&lt;/b&gt;" style="html=1;fontColor=default;strokeColor=default;strokeWidth=2;fillColor=default;" vertex="1" parent="1">
          <mxGeometry x="1390" y="80" width="170" height="120" as="geometry" />
        </mxCell>
        <mxCell id="nhkQxJ2o8u4Fg2ImektT-14" value="&lt;p style=&quot;margin: 0px ; margin-top: 4px ; text-align: center&quot;&gt;&lt;i&gt;&amp;lt;&amp;lt;Interface&amp;gt;&amp;gt;&lt;/i&gt;&lt;br&gt;&lt;b&gt;PlatformTransactionManager&lt;/b&gt;&lt;br&gt;&lt;/p&gt;&lt;hr size=&quot;1&quot;&gt;&lt;p style=&quot;margin: 0px ; margin-left: 4px&quot;&gt;+ field1: NO&lt;br&gt;&lt;/p&gt;&lt;hr size=&quot;1&quot;&gt;&lt;p style=&quot;margin: 0px ; margin-left: 4px&quot;&gt;+ method1(Type): Type&lt;br&gt;+&amp;nbsp;getTransaction(TransactionDefinition)&amp;nbsp;TransactionStatus&lt;/p&gt;&lt;p style=&quot;margin: 0px ; margin-left: 4px&quot;&gt;+&amp;nbsp;commit(TransactionStatus) void&lt;/p&gt;&lt;p style=&quot;margin: 0px ; margin-left: 4px&quot;&gt;+rollback(TransactionStatus) void&lt;/p&gt;" style="verticalAlign=top;align=left;overflow=fill;fontSize=12;fontFamily=Helvetica;html=1;fontColor=default;strokeColor=default;strokeWidth=2;fillColor=default;" vertex="1" parent="1">
          <mxGeometry x="860" y="80" width="330" height="150" as="geometry" />
        </mxCell>
        <mxCell id="nhkQxJ2o8u4Fg2ImektT-17" value="Extends" style="endArrow=block;endSize=16;endFill=0;html=1;rounded=0;fontColor=default;strokeColor=default;labelBackgroundColor=default;" edge="1" parent="1">
          <mxGeometry x="0.375" width="160" relative="1" as="geometry">
            <mxPoint x="1210" y="139.5" as="sourcePoint" />
            <mxPoint x="1370" y="139.5" as="targetPoint" />
            <mxPoint as="offset" />
          </mxGeometry>
        </mxCell>
        <mxCell id="nhkQxJ2o8u4Fg2ImektT-18" value="Classname" style="swimlane;fontStyle=0;childLayout=stackLayout;horizontal=1;startSize=26;fillColor=none;horizontalStack=0;resizeParent=1;resizeParentMax=0;resizeLast=0;collapsible=1;marginBottom=0;fontColor=default;strokeColor=default;strokeWidth=2;" vertex="1" parent="1">
          <mxGeometry x="-190" y="390" width="190" height="104" as="geometry" />
        </mxCell>
        <mxCell id="nhkQxJ2o8u4Fg2ImektT-19" value="+ field: type" style="text;strokeColor=none;fillColor=none;align=left;verticalAlign=top;spacingLeft=4;spacingRight=4;overflow=hidden;rotatable=0;points=[[0,0.5],[1,0.5]];portConstraint=eastwest;fontColor=default;" vertex="1" parent="nhkQxJ2o8u4Fg2ImektT-18">
          <mxGeometry y="26" width="190" height="26" as="geometry" />
        </mxCell>
        <mxCell id="nhkQxJ2o8u4Fg2ImektT-20" value="+ field: type" style="text;strokeColor=none;fillColor=none;align=left;verticalAlign=top;spacingLeft=4;spacingRight=4;overflow=hidden;rotatable=0;points=[[0,0.5],[1,0.5]];portConstraint=eastwest;fontColor=default;" vertex="1" parent="nhkQxJ2o8u4Fg2ImektT-18">
          <mxGeometry y="52" width="190" height="26" as="geometry" />
        </mxCell>
        <mxCell id="nhkQxJ2o8u4Fg2ImektT-21" value="+ field: type" style="text;strokeColor=none;fillColor=none;align=left;verticalAlign=top;spacingLeft=4;spacingRight=4;overflow=hidden;rotatable=0;points=[[0,0.5],[1,0.5]];portConstraint=eastwest;fontColor=default;" vertex="1" parent="nhkQxJ2o8u4Fg2ImektT-18">
          <mxGeometry y="78" width="190" height="26" as="geometry" />
        </mxCell>
        <mxCell id="nhkQxJ2o8u4Fg2ImektT-26" value="AbstractPlatformTransactionManager(Abstract Class)" style="swimlane;fontStyle=1;align=center;verticalAlign=top;childLayout=stackLayout;horizontal=1;startSize=20;horizontalStack=0;resizeParent=1;resizeParentMax=0;resizeLast=0;collapsible=1;marginBottom=0;fontColor=default;strokeColor=default;strokeWidth=2;fillColor=default;" vertex="1" parent="1">
          <mxGeometry x="310" y="95" width="360" height="250" as="geometry" />
        </mxCell>
        <mxCell id="nhkQxJ2o8u4Fg2ImektT-27" value="+ field: type" style="text;strokeColor=none;fillColor=none;align=left;verticalAlign=top;spacingLeft=4;spacingRight=4;overflow=hidden;rotatable=0;points=[[0,0.5],[1,0.5]];portConstraint=eastwest;fontColor=default;" vertex="1" parent="nhkQxJ2o8u4Fg2ImektT-26">
          <mxGeometry y="20" width="360" height="26" as="geometry" />
        </mxCell>
        <mxCell id="nhkQxJ2o8u4Fg2ImektT-28" value="" style="line;strokeWidth=1;fillColor=none;align=left;verticalAlign=middle;spacingTop=-1;spacingLeft=3;spacingRight=3;rotatable=0;labelPosition=right;points=[];portConstraint=eastwest;fontColor=default;" vertex="1" parent="nhkQxJ2o8u4Fg2ImektT-26">
          <mxGeometry y="46" width="360" height="8" as="geometry" />
        </mxCell>
        <mxCell id="nhkQxJ2o8u4Fg2ImektT-29" value="+ method(type): type&#xa;+getTransaction(TransactionDefinition)  TransactionStatus&#xa;   ++startTransaction(TransactionDefinition Object)&#xa;         +++dobegin(TransactionDefinition Object)&#xa;+ commit&#xa;+rollback&#xa;&#xa;+private methond&#xa;+dobegin(Object TransactionDefinition)" style="text;strokeColor=none;fillColor=none;align=left;verticalAlign=top;spacingLeft=4;spacingRight=4;overflow=hidden;rotatable=0;points=[[0,0.5],[1,0.5]];portConstraint=eastwest;fontColor=default;" vertex="1" parent="nhkQxJ2o8u4Fg2ImektT-26">
          <mxGeometry y="54" width="360" height="196" as="geometry" />
        </mxCell>
        <mxCell id="nhkQxJ2o8u4Fg2ImektT-30" value="" style="endArrow=block;dashed=1;endFill=0;endSize=12;html=1;rounded=0;labelBackgroundColor=default;fontColor=default;strokeColor=default;" edge="1" parent="1">
          <mxGeometry width="160" relative="1" as="geometry">
            <mxPoint x="690" y="149.5" as="sourcePoint" />
            <mxPoint x="850" y="149.5" as="targetPoint" />
          </mxGeometry>
        </mxCell>
        <mxCell id="nhkQxJ2o8u4Fg2ImektT-31" value="DataSourceTransactionManager" style="swimlane;fontStyle=1;align=center;verticalAlign=top;childLayout=stackLayout;horizontal=1;startSize=26;horizontalStack=0;resizeParent=1;resizeParentMax=0;resizeLast=0;collapsible=1;marginBottom=0;fontColor=default;strokeColor=default;strokeWidth=2;fillColor=default;" vertex="1" parent="1">
          <mxGeometry x="320" y="500" width="370" height="200" as="geometry" />
        </mxCell>
        <mxCell id="nhkQxJ2o8u4Fg2ImektT-32" value="+ field: type" style="text;strokeColor=none;fillColor=none;align=left;verticalAlign=top;spacingLeft=4;spacingRight=4;overflow=hidden;rotatable=0;points=[[0,0.5],[1,0.5]];portConstraint=eastwest;fontColor=default;" vertex="1" parent="nhkQxJ2o8u4Fg2ImektT-31">
          <mxGeometry y="26" width="370" height="26" as="geometry" />
        </mxCell>
        <mxCell id="nhkQxJ2o8u4Fg2ImektT-33" value="" style="line;strokeWidth=1;fillColor=none;align=left;verticalAlign=middle;spacingTop=-1;spacingLeft=3;spacingRight=3;rotatable=0;labelPosition=right;points=[];portConstraint=eastwest;fontColor=default;" vertex="1" parent="nhkQxJ2o8u4Fg2ImektT-31">
          <mxGeometry y="52" width="370" height="8" as="geometry" />
        </mxCell>
        <mxCell id="nhkQxJ2o8u4Fg2ImektT-34" value="+ method(type): type&#xa;+ dobegin(Object TransactionDefinition)" style="text;strokeColor=none;fillColor=none;align=left;verticalAlign=top;spacingLeft=4;spacingRight=4;overflow=hidden;rotatable=0;points=[[0,0.5],[1,0.5]];portConstraint=eastwest;fontColor=default;" vertex="1" parent="nhkQxJ2o8u4Fg2ImektT-31">
          <mxGeometry y="60" width="370" height="140" as="geometry" />
        </mxCell>
        <mxCell id="nhkQxJ2o8u4Fg2ImektT-35" value="" style="endArrow=block;dashed=1;endFill=0;endSize=12;html=1;rounded=0;labelBackgroundColor=default;fontColor=default;strokeColor=default;" edge="1" parent="1">
          <mxGeometry width="160" relative="1" as="geometry">
            <mxPoint x="520" y="490" as="sourcePoint" />
            <mxPoint x="520" y="350" as="targetPoint" />
            <Array as="points">
              <mxPoint x="520" y="442" />
              <mxPoint x="520" y="360" />
              <mxPoint x="520" y="350" />
              <mxPoint x="520" y="380" />
            </Array>
          </mxGeometry>
        </mxCell>
        <mxCell id="nhkQxJ2o8u4Fg2ImektT-39" value="" style="endArrow=none;dashed=1;html=1;dashPattern=1 3;strokeWidth=2;rounded=0;labelBackgroundColor=default;fontColor=default;strokeColor=default;" edge="1" parent="1">
          <mxGeometry width="50" height="50" relative="1" as="geometry">
            <mxPoint x="310" y="585" as="sourcePoint" />
            <mxPoint x="300" y="280" as="targetPoint" />
            <Array as="points">
              <mxPoint x="160" y="585" />
              <mxPoint x="160" y="280" />
            </Array>
          </mxGeometry>
        </mxCell>
      </root>
    </mxGraphModel>
  </diagram>
</mxfile>
